# Blender v2.80 (sub 75) OBJ File: ''
# www.blender.org
mtllib corner.mtl
o Cube
v -0.666702 1.000000 -1.000000
v -0.666702 -1.000000 -1.000000
v -0.666702 1.000000 1.000000
v -0.666702 -1.000000 1.000000
v -1.000000 1.000000 -1.495246
v -1.000000 -1.000000 -1.495246
v -1.000000 1.000000 1.000000
v -1.000000 -1.000000 1.000000
v -0.666702 1.000000 -1.000000
v -0.666702 -1.000000 -1.000000
v -1.000000 1.000000 -1.495246
v -1.000000 -1.000000 -1.495246
v 2.473256 1.000000 -1.000000
v 2.473256 -1.000000 -1.000000
v 2.474184 1.000000 -1.495246
v 2.474184 -1.000000 -1.495246
v -4.120415 -0.992137 4.120415
v 4.120415 -0.992137 4.120415
v -4.120415 -0.992137 -4.120415
v 4.120415 -0.992137 -4.120415
vt 0.999870 0.339985
vt 0.999870 0.561145
vt 0.997389 0.200234
vt 0.941811 0.201284
vt 0.896405 0.000130
vt 0.900293 0.062587
vt 0.827605 0.332407
vt 0.956157 0.191466
vt 0.674417 0.475916
vt 0.737782 0.000130
vt 0.827345 0.156385
vt 0.827345 0.669964
vt 0.775168 0.169617
vt 0.778578 0.079907
vt 0.795506 0.377015
vt 0.796820 0.465928
vt 0.674156 0.674156
vt 0.000130 0.674156
vt 0.000131 0.000130
vt 0.674156 0.000131
vn 0.0000 1.0000 0.0000
vn 0.0000 0.0000 1.0000
vn -1.0000 0.0000 0.0000
vn 0.0000 -1.0000 0.0000
vn 1.0000 0.0000 0.0000
vn 0.0000 0.0000 -1.0000
vn 0.0000 -0.2524 0.9676
vn 1.0000 0.0000 0.0019
usemtl Material
s off
f 1/1/1 5/2/1 7/3/1 3/4/1
f 4/5/2 3/4/2 7/3/2 8/6/2
f 8/6/3 7/3/3 5/2/3 6/7/3
f 6/7/4 2/8/4 4/5/4 8/6/4
f 2/8/5 1/1/5 3/4/5 4/5/5
f 11/9/6 15/10/6 16/11/6 12/12/6
f 12/12/7 16/11/7 14/13/7 13/14/7 9/15/7 10/16/7
f 9/15/1 13/14/1 15/10/1 11/9/1
f 14/13/8 16/11/8 15/10/8 13/14/8
f 17/17/1 18/18/1 20/19/1 19/20/1
