# Blender v2.75 (sub 0) OBJ File: ''
# www.blender.org
mtllib wall.mtl
o Cube
v 1.000000 -0.968092 0.714635
v 1.000000 -0.968092 1.000000
v -1.000000 -0.968092 1.000000
v -1.000000 -0.968092 0.714634
v 1.000000 3.503095 0.714635
v 0.999999 3.503095 1.000001
v -1.000000 3.503095 1.000000
v -1.000000 3.503095 0.714635
vt 0.995000 0.146256
vt 0.995000 0.005000
vt 0.005000 0.005000
vt 0.005000 0.146256
vt 0.146256 0.020794
vt 0.146256 2.234032
vt 0.005000 2.234032
vt 0.005000 0.020794
vt 0.995000 0.020794
vt 0.995000 2.234032
vt 0.995000 0.234032
vt 0.995000 -1.979206
vt 0.005000 -1.979206
vt 0.005000 0.234032
vn 0.000000 -1.000000 0.000000
vn 0.000000 1.000000 0.000000
vn 1.000000 0.000000 0.000000
vn -0.000000 -0.000000 1.000000
vn -1.000000 -0.000000 -0.000000
vn 0.000000 0.000000 -1.000000
usemtl Material
s off
f 1/1/1 2/2/1 3/3/1 4/4/1
f 5/1/2 8/4/2 7/3/2 6/2/2
f 1/5/3 5/6/3 6/7/3 2/8/3
f 2/9/4 6/10/4 7/7/4 3/8/4
f 3/8/5 7/7/5 8/6/5 4/5/5
f 5/11/6 1/12/6 4/13/6 8/14/6
